<svg viewBox="0 0 308 87" fill="none" xmlns="http://www.w3.org/2000/svg"><path d="M139.1 83.8v-6.9h.7v6.9h-.7Zm2.2 0v-6.9h.9l3.9 5.7v-5.7h.7v6.9h-.7l-4.1-6v6h-.7Zm6.9 0v-6.9h2c.9 0 1.7.2 2.3.6.5.3.9.7 1.1 1.2.3.5.4 1.1.4 1.7 0 .8-.2 1.4-.7 2-.4.5-.8.8-1.3 1-.5.2-1.1.3-1.8.3h-2v.1Zm.7-.7h1c.7 0 1.2-.1 1.5-.2.6-.2 1.1-.5 1.5-1.1.3-.5.5-1 .5-1.6 0-.6-.2-1.1-.5-1.6-.3-.4-.7-.7-1.2-.9-.5-.2-1-.3-1.8-.3h-1v5.7Zm6.2-6.2h.7v4.3c0 .6.1 1 .3 1.4.1.2.3.4.6.5.2.1.5.2.7.2.3 0 .5-.1.7-.2.2-.1.4-.3.6-.5.2-.4.3-.8.3-1.4v-4.3h.7v4.3c0 .8-.2 1.4-.5 1.8-.2.3-.5.5-.8.6-.3.1-.7.2-1.1.2-.5 0-1-.1-1.4-.5-.6-.5-.9-1.2-.9-2.2v-4.2h.1Zm5.5 4.9h.7c.1.4.1.7.3.9.1.2.3.3.5.4.2.1.4.1.6.1.2 0 .4 0 .5-.1.2-.1.3-.2.5-.3.3-.3.4-.6.4-.9 0-.4-.2-.7-.5-1-.2-.2-.6-.3-1-.5-.4-.1-.6-.2-.8-.3-.2-.1-.3-.2-.5-.3-.3-.3-.5-.7-.5-1.2s.2-.9.5-1.3c.4-.4.9-.6 1.4-.6.5 0 1 .2 1.4.5.4.4.5.8.5 1.3h-.7c0-.4-.1-.7-.4-.9-.2-.2-.5-.3-.9-.3-.3 0-.6.1-.8.3-.3.3-.4.6-.4.9 0 .3.1.6.3.8.2.1.5.3 1 .4.4.1.7.2.8.3.1.1.3.2.5.3.2.2.4.4.5.7.1.3.2.5.2.8 0 .5-.2 1-.6 1.4-.4.4-.9.6-1.5.6-.3 0-.7-.1-1-.2-.3-.1-.5-.3-.7-.6-.2-.3-.3-.7-.3-1.2Zm6.1 2v-6.2h-1.6V77h3.8v.6h-1.6v6.2h-.6Zm3.2 0v-6.9h1.7c.7 0 1.2.1 1.6.2.3.1.6.3.9.6.3.4.5.9.5 1.4 0 .6-.2 1-.6 1.4-.4.4-.9.6-1.5.7l1.9 2.6h-.9l-2.3-3.1h1c.2 0 .4 0 .5-.1.3-.1.6-.3.8-.5.2-.3.3-.6.3-.9 0-.4-.1-.7-.4-1-.2-.2-.4-.3-.7-.4-.3-.1-.6-.1-1-.1h-1.2v6.2h-.6v-.1Zm5.8 0v-6.9h.7v6.9h-.7Zm1.4 0 2.9-6.9h.8l2.9 6.9h-.7l-1-2.3h-3.2l-1 2.3h-.7Zm2-3h2.7l-1.3-3.1-1.4 3.1Zm5.5 3v-6.9h.7v6.2h2.9v.6h-3.6v.1Zm7 0v-6.9h1.9c.4 0 .8 0 1 .1.3.1.5.2.7.3.3.2.5.4.6.7.1.3.2.6.2 1 0 .7-.2 1.2-.7 1.5-.4.3-1 .5-1.7.5h-1.4v2.8h-.6Zm.7-3.4h1.3c.6 0 1-.1 1.3-.3.2-.1.3-.3.4-.5.1-.2.2-.4.2-.7 0-.4-.1-.7-.4-1-.3-.2-.5-.3-.9-.4h-1.9v2.9Zm4.8 3.4v-6.9h.7v6.2h2.9v.6h-3.6v.1Zm3.8 0 2.9-6.9h.8l2.9 6.9h-.7l-1-2.3h-3.2l-1 2.3h-.7Zm2-3h2.7l-1.3-3.1-1.4 3.1Zm4.8 1h.7c.1.4.2.7.3.9.1.2.3.3.5.4.2.1.4.1.6.1.2 0 .4 0 .5-.1.2-.1.3-.2.5-.3.3-.3.4-.6.4-.9 0-.4-.2-.7-.5-1-.2-.2-.6-.3-1-.5-.4-.1-.6-.2-.8-.3-.2-.1-.4-.2-.5-.3-.3-.3-.5-.7-.5-1.2s.2-.9.5-1.3c.4-.4.9-.6 1.4-.6.5 0 1 .2 1.3.5.4.4.6.8.6 1.3h-.7c0-.4-.1-.7-.4-.9-.3-.2-.5-.3-.9-.3s-.6.1-.8.3c-.3.3-.4.6-.4.9 0 .3.1.6.3.8.2.1.5.3 1 .4.4.1.7.2.9.3.1.1.3.2.4.3.2.2.4.4.5.7.1.3.2.5.2.8 0 .5-.2 1-.6 1.4-.4.4-.9.6-1.5.6-.3 0-.7-.1-1-.2-.3-.1-.6-.3-.8-.6 0-.3-.1-.7-.2-1.2Zm6.2 2v-6.2h-1.6V77h3.8v.6h-1.6v6.2h-.6Zm3.1 0v-6.9h.7v6.9h-.7Zm7.8-1.8h.8c-.3.6-.8 1.1-1.3 1.4-.6.3-1.2.5-1.8.5-.6 0-1.2-.1-1.8-.5-.6-.3-1-.8-1.4-1.4-.3-.5-.4-1.1-.4-1.7 0-.7.2-1.3.5-1.9.3-.6.8-1 1.4-1.3.5-.2 1-.4 1.6-.4.9 0 1.6.3 2.2.8.5.4.8.7.9 1.1h-.8c-.2-.3-.5-.6-.8-.8-.5-.3-1-.5-1.6-.5-.5 0-1 .2-1.5.5s-.8.7-1 1.2c-.2.4-.3.9-.3 1.3 0 .5.2 1 .5 1.6.3.5.7.8 1.2 1 .4.2.9.3 1.2.3.3 0 .6 0 .9-.1.3-.1.6-.3.8-.4.2-.2.5-.4.7-.7Zm4.3 1.8v-6.9h1.9c.4 0 .8 0 1 .1.3.1.5.2.7.3.3.2.5.4.6.7.1.3.2.6.2 1 0 .7-.3 1.2-.7 1.5-.4.3-1 .5-1.7.5h-1.4v2.8h-.6Zm.7-3.4h1.3c.6 0 1-.1 1.3-.3.2-.1.3-.3.5-.5.1-.2.2-.4.2-.7 0-.4-.1-.7-.4-1-.3-.2-.6-.3-.9-.4H230v2.9h-.2Zm3.6 3.4 2.9-6.9h.8l2.9 6.9h-.8l-1-2.3H235l-1 2.3h-.6Zm1.9-3h2.7l-1.3-3.1-1.4 3.1ZM246 82h.8c-.3.6-.8 1.1-1.3 1.4-.6.3-1.2.5-1.8.5-.7 0-1.2-.1-1.8-.5-.6-.3-1.1-.8-1.4-1.4-.3-.5-.4-1.1-.4-1.7 0-.7.2-1.3.6-1.9.3-.6.8-1 1.4-1.3.5-.2 1-.4 1.6-.4.8 0 1.6.3 2.2.8.5.4.8.7.9 1.1h-.8c-.2-.3-.5-.6-.8-.8-.5-.3-1-.5-1.6-.5-.5 0-1 .2-1.5.5s-.8.7-1 1.2c-.2.4-.3.9-.3 1.3 0 .5.1 1 .5 1.6.3.5.7.8 1.2 1 .4.2.8.3 1.2.3.3 0 .6 0 .9-.1.3-.1.6-.3.8-.4.2-.1.4-.4.6-.7Zm1.8 1.8v-6.9h.7v3.9l3.1-3.9h.9l-2.7 3.3 2.7 3.5h-.9l-2.3-3-.9 1.1v1.9h-.6v.1Zm4.9 0 2.9-6.9h.8l2.9 6.9h-.8l-1-2.3h-3.2l-1 2.3h-.6Zm2-3h2.7l-1.3-3.1-1.4 3.1Zm7.3-.2h4.7c-.1.8-.4 1.5-.9 2.1-.3.4-.7.7-1.2.9-.5.2-1 .3-1.5.3-.9 0-1.7-.3-2.4-.9-.4-.3-.7-.8-.9-1.2-.2-.5-.3-.9-.3-1.4 0-.7.2-1.4.6-2 .3-.5.8-.9 1.4-1.2.5-.3 1-.4 1.6-.4.9 0 1.6.3 2.3.8.5.4.8.8 1 1.2h-.8c-.2-.3-.5-.6-.9-.9-.5-.3-1-.5-1.6-.5-.6 0-1.1.1-1.6.5-.5.3-.8.7-1.1 1.2-.2.4-.3.9-.3 1.3 0 .6.2 1.1.5 1.6.3.4.7.8 1.2 1 .4.2.9.3 1.3.3.8 0 1.4-.3 2-.8.4-.4.6-.8.7-1.2H262v-.7Zm5.8 3.2v-6.9h.7v6.9h-.7Zm2.2 0v-6.9h.9l3.9 5.7v-5.7h.7v6.9h-.7l-4.1-6v6h-.7Zm9.2-3.2h4.6c-.1.8-.4 1.5-.9 2.1-.4.4-.8.7-1.2.9-.5.2-1 .3-1.5.3-.9 0-1.7-.3-2.4-.9-.4-.3-.7-.8-.9-1.2-.2-.5-.3-.9-.3-1.4 0-.7.2-1.4.6-2 .4-.5.8-.9 1.4-1.2.5-.3 1-.4 1.6-.4.9 0 1.6.3 2.3.8.5.4.8.8 1 1.2h-.8c-.2-.3-.5-.6-.9-.9-.5-.3-1-.5-1.6-.5-.6 0-1.1.1-1.6.5-.5.3-.9.7-1.1 1.2-.2.4-.3.9-.3 1.3 0 .6.2 1.1.5 1.6.3.4.7.8 1.2 1 .4.2.9.3 1.3.3.8 0 1.5-.3 2-.8.4-.4.6-.8.7-1.2h-3.8v-.7h.1Zm2.3-24.5c.6 0 1.1.1 1.6.4.5.3 1 .7 1.2 1.2.3.5.5 1.1.5 1.7 0 .6-.1 1.1-.5 1.7-.3.5-.7.9-1.2 1.2-.5.3-1.1.4-1.7.4-.6 0-1.1-.1-1.7-.4-.5-.3-.9-.7-1.2-1.2-.3-.5-.5-1.1-.5-1.7 0-.6.2-1.1.5-1.7.3-.5.7-1 1.3-1.2.6-.2 1.1-.4 1.7-.4Zm0 .5c-.5 0-.9.1-1.4.4-.4.3-.8.6-1 1-.3.5-.4.9-.4 1.4 0 .5.1 1 .4 1.4.3.5.6.8 1 1 .4.2.9.4 1.4.4.5 0 .9-.1 1.4-.4.5-.3.8-.6 1-1 .3-.4.4-.9.4-1.4 0-.5-.1-.9-.4-1.4-.3-.5-.6-.8-1-1-.5-.2-.9-.4-1.4-.4Zm-1.5 4.7v-3.6h1.2c.4 0 .7.1.9.1.2 0 .3.2.5.3.1.2.2.3.2.5 0 .3-.1.5-.3.7-.2.2-.4.3-.7.3.1.1.2.1.3.2.2.1.3.4.5.7l.5.7h-.7l-.3-.6c-.2-.4-.5-.7-.6-.8-.1-.1-.3-.1-.5-.1h-.4v1.5h-.6v.1Zm.6-2h.7c.3 0 .6-.1.7-.1.1-.1.2-.3.2-.4 0-.1 0-.2-.1-.3-.1-.1-.1-.2-.3-.2-.1-.1-.3-.1-.6-.1h-.7v1.1h.1Z" fill="#333"/><path d="m44.9 7.9 29 13.5c3.7 1.8 4.8 1.5 4.8 7l-.1 30.5c0 3.2-.9 4.8-2.6 6.3L47 85.4c-2.4 1.8-4.2.8-3.8-2.9l1.2-34c.1-1.5.8-3.4 2.7-4.8l21.8-13.8c1-.7.7-1.8-.9-2.4-2.4-1.1-21.2-10.3-26.6-12.7-1.5-.7-1.6-.7-3.2-.1-5.3 2.2-24.7 11.6-27.2 12.8-1.5.6-1.9 1.7-.9 2.4l21.8 13.8c1.9 1.4 2.5 3.3 2.7 4.8l1.2 34c.1 3-.8 4.8-3.4 3L3.1 64.8C1.4 63.4.6 61.4.8 58l.1-30.9c-.1-3.1 1.6-4.6 4.8-5.8L34.8 7.9c3.6-1.7 6.4-1.6 10.1 0Zm-5.3 14.3c-.5 0-.9.1-1.5.5l-14.8 7.8c-1.1.8-1.4 1.9-.3 2.7l12.2 7.6c1.2.6 1.8.2 1.9-1.4v-2.9c.1-1.5.9-2.8 2.5-2.8 1.6-.1 2.4 1.3 2.5 2.8v2.9c.1 1.6.7 2 1.9 1.4l12.2-7.6c1.1-.8.8-1.9-.3-2.7l-14.8-7.8c-.6-.4-1-.5-1.5-.5Zm70.4-5.5h2.7c1.5 0 2.7.6 2.7 2.1v41.5c0 1.5-1.2 2.1-2.7 2.1H110c-1.5 0-2.7-.7-2.7-2.1V18.8c0-1.5 1.2-2.1 2.7-2.1Z" fill="red"/><path d="M126.6 28.2h24.3c2.6 0 5.5 3.3 5.5 6v22.7c0 2.5-2.5 5.7-5 5.7h-21.2v11.6c0 1.5-1.2 2.7-2.7 2.7h-2.7c-1.5 0-2.7-1.2-2.7-2.7V31c.1-2.5 2.6-2.8 4.5-2.8Zm3.6 27.2v.2c.1.3.4.6.7.7h16.8c.3-.1.6-.4.7-.7V35.3c-.1-.3-.4-.6-.7-.7h-16.8c-.3.1-.6.4-.7.7v20.1Zm35.4-39.3h3.8c1.5 0 2.1.9 2.1 2.4v41.8c0 1.5-.6 2.1-2.1 2.1h-3.8c-1.5 0-2.1-.7-2.1-2.1V18.5c0-1.5.6-2.4 2.1-2.4Zm102.8 40h3.5c1.8 0 2.3 1.4 2.3 3.2 0 1.7-.6 3.2-2.3 3.2h-7.3c-.4 0-.9 0-1.3-.1-2.7-.3-3.7-1.9-3.7-4.7V18.1c0-1.5.6-2.1 2.1-2.1h3.8c1.5 0 2.1.6 2.1 2.1v9.3c.1.3.4.6.7.7h3.2c1.8 0 2.6 1.4 2.6 3.2 0 1.8-.9 3.2-2.6 3.2h-3.2c-.3.1-.6.4-.7.7v20.2c.2.4.5.6.8.7Zm-82.1-20.5c-.1.5-.2.9-.3 1.2-.6 1.3-1.9 2.2-3.4 2.2-2 0-3.7-1.6-3.7-3.7v-1.7c0-1.9 2-5.1 4.9-5.1h23.5c3.2 0 5.4 2.3 5.4 5.8v24.1c0 2.5-2.2 4.1-4.8 4h-23.8c-3.4 0-5.8-3.7-5.8-6.4v-8.2c0-2.5 1.7-4.6 4-5.3.5-.3 1.1-.5 1.8-.5h19.8c.3-.1.6-.4.7-.7v-5.8c-.1-.3-.4-.6-.7-.7h-16.8c-.3.1-.8.5-.8.8Zm0 19.8c.1.3.4.6.7.7h16.8c.3-.1.6-.4.7-.7v-6.3c-.1-.3-.4-.6-.7-.7H187c-.3.1-.6.4-.7.7v6.3Zm38.4-27.3h25.7c1.8 0 2.3 1.4 2.3 3.2 0 1.8-.6 3.2-2.3 3.2h-22.7c-.3.1-.6.4-.7.7v6c.1.3.4.6.7.7h20.2c2.9 0 5 2.1 5 5.1v10c0 4.4-4.4 5.5-7.9 5.5h-23.6c-1.7 0-2.6-1.4-2.6-3.2 0-1.8.9-3.2 2.6-3.2h22.8c.3-.1.6-.3.7-.7v-6.5c-.1-.3-.4-.6-.7-.7h-19.3c-3.2 0-5.8-1.6-5.8-4.7v-10c-.1-3.3 2.6-5.4 5.6-5.4Z" fill="#333"/><path d="M109.7 2.7h2.9c1.5 0 2.7.9 2.7 2.4v3.5c0 1.4-.9 2.4-2.4 2.4h-3.2c-1.5 0-2.4-.9-2.4-2.4V5.1c0-1.5 1-2.4 2.4-2.4ZM305.1.1h1.7c.1 0 .3.1.3.3v72.9c0 .1-.1.3-.3.3h-1.7c-.2 0-.3-.1-.3-.3V.4c0-.2.1-.3.3-.3Z" fill="red"/></svg>