<svg width="24" height="25" fill="none" xmlns="http://www.w3.org/2000/svg"><path d="M12 22.89c-5.93 0-10.75-4.82-10.75-10.75S6.07 1.39 12 1.39s10.75 4.82 10.75 10.75S17.93 22.89 12 22.89Zm0-20c-5.1 0-9.25 4.15-9.25 9.25S6.9 21.39 12 21.39s9.25-4.15 9.25-9.25S17.1 2.89 12 2.89Z" fill="red"/><path d="M12 13.89c-.41 0-.75-.34-.75-.75v-5c0-.41.34-.75.75-.75s.75.34.75.75v5c0 .41-.34.75-.75.75Zm0 3.25c-.13 0-.26-.03-.38-.08s-.23-.12-.33-.21c-.09-.1-.16-.2-.21-.33a.995.995 0 0 1-.08-.38c0-.13.03-.26.08-.38s.12-.23.21-.33c.1-.09.21-.16.33-.21a1 1 0 0 1 .76 0c.12.05.23.12.33.21.09.1.16.21.21.33.05.12.08.25.08.38s-.03.26-.08.38c-.05.13-.12.23-.21.33-.1.09-.21.16-.33.21-.12.05-.25.08-.38.08Z" fill="red"/></svg>