<svg width="10" height="11" viewBox="0 0 10 11" fill="none" xmlns="http://www.w3.org/2000/svg">
<path d="M5.7119 8.19969C5.63669 8.19969 5.56148 8.17198 5.50211 8.11261C5.38732 7.99782 5.38732 7.80782 5.50211 7.69302L7.69503 5.50011L5.50211 3.30719C5.38732 3.1924 5.38732 3.0024 5.50211 2.88761C5.6169 2.77282 5.8069 2.77282 5.92169 2.88761L8.3244 5.29032C8.43919 5.40511 8.43919 5.59511 8.3244 5.7099L5.92169 8.11261C5.86232 8.17198 5.78711 8.19969 5.7119 8.19969Z" fill="#FF0000"/>
<path d="M8.04725 5.79688H1.38538C1.22308 5.79688 1.0885 5.66229 1.0885 5.5C1.0885 5.33771 1.22308 5.20312 1.38538 5.20312H8.04725C8.20954 5.20312 8.34413 5.33771 8.34413 5.5C8.34413 5.66229 8.20954 5.79688 8.04725 5.79688Z" fill="#FF0000"/>
</svg>