<svg width="19" height="19" viewBox="0 0 19 19" fill="none" xmlns="http://www.w3.org/2000/svg">
<path d="M11.4238 14.6957C11.2734 14.6957 11.123 14.6424 11.0042 14.5281C10.7746 14.3072 10.7746 13.9415 11.0042 13.7206L15.3901 9.50012L11.0042 5.27962C10.7746 5.0587 10.7746 4.69302 11.0042 4.47209C11.2338 4.25116 11.6138 4.25116 11.8434 4.47209L16.6488 9.09635C16.8784 9.31728 16.8784 9.68296 16.6488 9.90388L11.8434 14.5281C11.7246 14.6424 11.5742 14.6957 11.4238 14.6957Z" fill="#FF0000"/>
<path d="M16.0943 10.0714H2.77051C2.44592 10.0714 2.17676 9.81242 2.17676 9.50008C2.17676 9.18773 2.44592 8.92871 2.77051 8.92871H16.0943C16.4188 8.92871 16.688 9.18773 16.688 9.50008C16.688 9.81242 16.4188 10.0714 16.0943 10.0714Z" fill="#FF0000"/>
</svg>
