<svg viewBox="0 0 308 87" fill="none" xmlns="http://www.w3.org/2000/svg">
<path d="M139.1 83.8002V76.9002H139.8V83.8002H139.1ZM141.3 83.8002V76.9002H142.2L146.1 82.6002V76.9002H146.8V83.8002H146.1L142 77.8002V83.8002H141.3ZM148.2 83.8002V76.9002H150.2C151.1 76.9002 151.9 77.1002 152.5 77.5002C153 77.8002 153.4 78.2002 153.6 78.7002C153.9 79.2002 154 79.8002 154 80.4002C154 81.2002 153.8 81.8002 153.3 82.4002C152.9 82.9002 152.5 83.2002 152 83.4002C151.5 83.6002 150.9 83.7002 150.2 83.7002H148.2V83.8002ZM148.9 83.1002H149.9C150.6 83.1002 151.1 83.0002 151.4 82.9002C152 82.7002 152.5 82.4002 152.9 81.8002C153.2 81.3002 153.4 80.8002 153.4 80.2002C153.4 79.6002 153.2 79.1002 152.9 78.6002C152.6 78.2002 152.2 77.9002 151.7 77.7002C151.2 77.5002 150.7 77.4002 149.9 77.4002H148.9V83.1002ZM155.1 76.9002H155.8V81.2002C155.8 81.8002 155.9 82.2002 156.1 82.6002C156.2 82.8002 156.4 83.0002 156.7 83.1002C156.9 83.2002 157.2 83.3002 157.4 83.3002C157.7 83.3002 157.9 83.2002 158.1 83.1002C158.3 83.0002 158.5 82.8002 158.7 82.6002C158.9 82.2002 159 81.8002 159 81.2002V76.9002H159.7V81.2002C159.7 82.0002 159.5 82.6002 159.2 83.0002C159 83.3002 158.7 83.5002 158.4 83.6002C158.1 83.7002 157.7 83.8002 157.3 83.8002C156.8 83.8002 156.3 83.7002 155.9 83.3002C155.3 82.8002 155 82.1002 155 81.1002V76.9002H155.1ZM160.6 81.8002H161.3C161.4 82.2002 161.4 82.5002 161.6 82.7002C161.7 82.9002 161.9 83.0002 162.1 83.1002C162.3 83.2002 162.5 83.2002 162.7 83.2002C162.9 83.2002 163.1 83.2002 163.2 83.1002C163.4 83.0002 163.5 82.9002 163.7 82.8002C164 82.5002 164.1 82.2002 164.1 81.9002C164.1 81.5002 163.9 81.2002 163.6 80.9002C163.4 80.7002 163 80.6002 162.6 80.4002C162.2 80.3002 162 80.2002 161.8 80.1002C161.6 80.0002 161.5 79.9002 161.3 79.8002C161 79.5002 160.8 79.1002 160.8 78.6002C160.8 78.1002 161 77.7002 161.3 77.3002C161.7 76.9002 162.2 76.7002 162.7 76.7002C163.2 76.7002 163.7 76.9002 164.1 77.2002C164.5 77.6002 164.6 78.0002 164.6 78.5002H163.9C163.9 78.1002 163.8 77.8002 163.5 77.6002C163.3 77.4002 163 77.3002 162.6 77.3002C162.3 77.3002 162 77.4002 161.8 77.6002C161.5 77.9002 161.4 78.2002 161.4 78.5002C161.4 78.8002 161.5 79.1002 161.7 79.3002C161.9 79.4002 162.2 79.6002 162.7 79.7002C163.1 79.8002 163.4 79.9002 163.5 80.0002C163.6 80.1002 163.8 80.2002 164 80.3002C164.2 80.5002 164.4 80.7002 164.5 81.0002C164.6 81.3002 164.7 81.5002 164.7 81.8002C164.7 82.3002 164.5 82.8002 164.1 83.2002C163.7 83.6002 163.2 83.8002 162.6 83.8002C162.3 83.8002 161.9 83.7002 161.6 83.6002C161.3 83.5002 161.1 83.3002 160.9 83.0002C160.7 82.7002 160.6 82.3002 160.6 81.8002ZM166.7 83.8002V77.6002H165.1V77.0002H168.9V77.6002H167.3V83.8002H166.7ZM169.9 83.8002V76.9002H171.6C172.3 76.9002 172.8 77.0002 173.2 77.1002C173.5 77.2002 173.8 77.4002 174.1 77.7002C174.4 78.1002 174.6 78.6002 174.6 79.1002C174.6 79.7002 174.4 80.1002 174 80.5002C173.6 80.9002 173.1 81.1002 172.5 81.2002L174.4 83.8002H173.5L171.2 80.7002C171.7 80.7002 172.1 80.7002 172.2 80.7002C172.4 80.7002 172.6 80.7002 172.7 80.6002C173 80.5002 173.3 80.3002 173.5 80.1002C173.7 79.8002 173.8 79.5002 173.8 79.2002C173.8 78.8002 173.7 78.5002 173.4 78.2002C173.2 78.0002 173 77.9002 172.7 77.8002C172.4 77.7002 172.1 77.7002 171.7 77.7002H170.5V83.9002H169.9V83.8002ZM175.7 83.8002V76.9002H176.4V83.8002H175.7ZM177.1 83.8002L180 76.9002H180.8L183.7 83.8002H183L182 81.5002H178.8L177.8 83.8002H177.1ZM179.1 80.8002H181.8L180.5 77.7002L179.1 80.8002ZM184.6 83.8002V76.9002H185.3V83.1002H188.2V83.7002H184.6V83.8002ZM191.6 83.8002V76.9002H193.5C193.9 76.9002 194.3 76.9002 194.5 77.0002C194.8 77.1002 195 77.2002 195.2 77.3002C195.5 77.5002 195.7 77.7002 195.8 78.0002C195.9 78.3002 196 78.6002 196 79.0002C196 79.7002 195.8 80.2002 195.3 80.5002C194.9 80.8002 194.3 81.0002 193.6 81.0002H192.2V83.8002H191.6ZM192.3 80.4002H193.6C194.2 80.4002 194.6 80.3002 194.9 80.1002C195.1 80.0002 195.2 79.8002 195.3 79.6002C195.4 79.4002 195.5 79.2002 195.5 78.9002C195.5 78.5002 195.4 78.2002 195.1 77.9002C194.8 77.7002 194.6 77.6002 194.2 77.5002C194.1 77.5002 193.8 77.5002 193.3 77.5002H192.3V80.4002ZM197.1 83.8002V76.9002H197.8V83.1002H200.7V83.7002H197.1V83.8002ZM200.9 83.8002L203.8 76.9002H204.6L207.5 83.8002H206.8L205.8 81.5002H202.6L201.6 83.8002H200.9ZM202.9 80.8002H205.6L204.3 77.7002L202.9 80.8002ZM207.7 81.8002H208.4C208.5 82.2002 208.6 82.5002 208.7 82.7002C208.8 82.9002 209 83.0002 209.2 83.1002C209.4 83.2002 209.6 83.2002 209.8 83.2002C210 83.2002 210.2 83.2002 210.3 83.1002C210.5 83.0002 210.6 82.9002 210.8 82.8002C211.1 82.5002 211.2 82.2002 211.2 81.9002C211.2 81.5002 211 81.2002 210.7 80.9002C210.5 80.7002 210.1 80.6002 209.7 80.4002C209.3 80.3002 209.1 80.2002 208.9 80.1002C208.7 80.0002 208.5 79.9002 208.4 79.8002C208.1 79.5002 207.9 79.1002 207.9 78.6002C207.9 78.1002 208.1 77.7002 208.4 77.3002C208.8 76.9002 209.3 76.7002 209.8 76.7002C210.3 76.7002 210.8 76.9002 211.1 77.2002C211.5 77.6002 211.7 78.0002 211.7 78.5002H211C211 78.1002 210.9 77.8002 210.6 77.6002C210.3 77.4002 210.1 77.3002 209.7 77.3002C209.3 77.3002 209.1 77.4002 208.9 77.6002C208.6 77.9002 208.5 78.2002 208.5 78.5002C208.5 78.8002 208.6 79.1002 208.8 79.3002C209 79.4002 209.3 79.6002 209.8 79.7002C210.2 79.8002 210.5 79.9002 210.7 80.0002C210.8 80.1002 211 80.2002 211.1 80.3002C211.3 80.5002 211.5 80.7002 211.6 81.0002C211.7 81.3002 211.8 81.5002 211.8 81.8002C211.8 82.3002 211.6 82.8002 211.2 83.2002C210.8 83.6002 210.3 83.8002 209.7 83.8002C209.4 83.8002 209 83.7002 208.7 83.6002C208.4 83.5002 208.1 83.3002 207.9 83.0002C207.9 82.7002 207.8 82.3002 207.7 81.8002ZM213.9 83.8002V77.6002H212.3V77.0002H216.1V77.6002H214.5V83.8002H213.9ZM217 83.8002V76.9002H217.7V83.8002H217ZM224.8 82.0002H225.6C225.3 82.6002 224.8 83.1002 224.3 83.4002C223.7 83.7002 223.1 83.9002 222.5 83.9002C221.9 83.9002 221.3 83.8002 220.7 83.4002C220.1 83.1002 219.7 82.6002 219.3 82.0002C219 81.5002 218.9 80.9002 218.9 80.3002C218.9 79.6002 219.1 79.0002 219.4 78.4002C219.7 77.8002 220.2 77.4002 220.8 77.1002C221.3 76.9002 221.8 76.7002 222.4 76.7002C223.3 76.7002 224 77.0002 224.6 77.5002C225.1 77.9002 225.4 78.2002 225.5 78.6002H224.7C224.5 78.3002 224.2 78.0002 223.9 77.8002C223.4 77.5002 222.9 77.3002 222.3 77.3002C221.8 77.3002 221.3 77.5002 220.8 77.8002C220.3 78.1002 220 78.5002 219.8 79.0002C219.6 79.4002 219.5 79.9002 219.5 80.3002C219.5 80.8002 219.7 81.3002 220 81.9002C220.3 82.4002 220.7 82.7002 221.2 82.9002C221.6 83.1002 222.1 83.2002 222.4 83.2002C222.7 83.2002 223 83.2002 223.3 83.1002C223.6 83.0002 223.9 82.8002 224.1 82.7002C224.3 82.5002 224.6 82.3002 224.8 82.0002ZM229.1 83.8002V76.9002H231C231.4 76.9002 231.8 76.9002 232 77.0002C232.3 77.1002 232.5 77.2002 232.7 77.3002C233 77.5002 233.2 77.7002 233.3 78.0002C233.4 78.3002 233.5 78.6002 233.5 79.0002C233.5 79.7002 233.2 80.2002 232.8 80.5002C232.4 80.8002 231.8 81.0002 231.1 81.0002H229.7V83.8002H229.1ZM229.8 80.4002H231.1C231.7 80.4002 232.1 80.3002 232.4 80.1002C232.6 80.0002 232.7 79.8002 232.9 79.6002C233 79.4002 233.1 79.2002 233.1 78.9002C233.1 78.5002 233 78.2002 232.7 77.9002C232.4 77.7002 232.1 77.6002 231.8 77.5002C231.7 77.5002 231.4 77.5002 231 77.5002H230V80.4002H229.8ZM233.4 83.8002L236.3 76.9002H237.1L240 83.8002H239.2L238.2 81.5002H235L234 83.8002H233.4ZM235.3 80.8002H238L236.7 77.7002L235.3 80.8002ZM246 82.0002H246.8C246.5 82.6002 246 83.1002 245.5 83.4002C244.9 83.7002 244.3 83.9002 243.7 83.9002C243 83.9002 242.5 83.8002 241.9 83.4002C241.3 83.1002 240.8 82.6002 240.5 82.0002C240.2 81.5002 240.1 80.9002 240.1 80.3002C240.1 79.6002 240.3 79.0002 240.7 78.4002C241 77.8002 241.5 77.4002 242.1 77.1002C242.6 76.9002 243.1 76.7002 243.7 76.7002C244.5 76.7002 245.3 77.0002 245.9 77.5002C246.4 77.9002 246.7 78.2002 246.8 78.6002H246C245.8 78.3002 245.5 78.0002 245.2 77.8002C244.7 77.5002 244.2 77.3002 243.6 77.3002C243.1 77.3002 242.6 77.5002 242.1 77.8002C241.6 78.1002 241.3 78.5002 241.1 79.0002C240.9 79.4002 240.8 79.9002 240.8 80.3002C240.8 80.8002 240.9 81.3002 241.3 81.9002C241.6 82.4002 242 82.7002 242.5 82.9002C242.9 83.1002 243.3 83.2002 243.7 83.2002C244 83.2002 244.3 83.2002 244.6 83.1002C244.9 83.0002 245.2 82.8002 245.4 82.7002C245.6 82.6002 245.8 82.3002 246 82.0002ZM247.8 83.8002V76.9002H248.5V80.8002L251.6 76.9002H252.5L249.8 80.2002L252.5 83.7002H251.6L249.3 80.7002L248.4 81.8002V83.7002H247.8V83.8002ZM252.7 83.8002L255.6 76.9002H256.4L259.3 83.8002H258.5L257.5 81.5002H254.3L253.3 83.8002H252.7ZM254.7 80.8002H257.4L256.1 77.7002L254.7 80.8002ZM262 80.6002H266.7C266.6 81.4002 266.3 82.1002 265.8 82.7002C265.5 83.1002 265.1 83.4002 264.6 83.6002C264.1 83.8002 263.6 83.9002 263.1 83.9002C262.2 83.9002 261.4 83.6002 260.7 83.0002C260.3 82.7002 260 82.2002 259.8 81.8002C259.6 81.3002 259.5 80.9002 259.5 80.4002C259.5 79.7002 259.7 79.0002 260.1 78.4002C260.4 77.9002 260.9 77.5002 261.5 77.2002C262 76.9002 262.5 76.8002 263.1 76.8002C264 76.8002 264.7 77.1002 265.4 77.6002C265.9 78.0002 266.2 78.4002 266.4 78.8002H265.6C265.4 78.5002 265.1 78.2002 264.7 77.9002C264.2 77.6002 263.7 77.4002 263.1 77.4002C262.5 77.4002 262 77.5002 261.5 77.9002C261 78.2002 260.7 78.6002 260.4 79.1002C260.2 79.5002 260.1 80.0002 260.1 80.4002C260.1 81.0002 260.3 81.5002 260.6 82.0002C260.9 82.4002 261.3 82.8002 261.8 83.0002C262.2 83.2002 262.7 83.3002 263.1 83.3002C263.9 83.3002 264.5 83.0002 265.1 82.5002C265.5 82.1002 265.7 81.7002 265.8 81.3002H262V80.6002ZM267.8 83.8002V76.9002H268.5V83.8002H267.8ZM270 83.8002V76.9002H270.9L274.8 82.6002V76.9002H275.5V83.8002H274.8L270.7 77.8002V83.8002H270ZM279.2 80.6002H283.8C283.7 81.4002 283.4 82.1002 282.9 82.7002C282.5 83.1002 282.1 83.4002 281.7 83.6002C281.2 83.8002 280.7 83.9002 280.2 83.9002C279.3 83.9002 278.5 83.6002 277.8 83.0002C277.4 82.7002 277.1 82.2002 276.9 81.8002C276.7 81.3002 276.6 80.9002 276.6 80.4002C276.6 79.7002 276.8 79.0002 277.2 78.4002C277.6 77.9002 278 77.5002 278.6 77.2002C279.1 76.9002 279.6 76.8002 280.2 76.8002C281.1 76.8002 281.8 77.1002 282.5 77.6002C283 78.0002 283.3 78.4002 283.5 78.8002H282.7C282.5 78.5002 282.2 78.2002 281.8 77.9002C281.3 77.6002 280.8 77.4002 280.2 77.4002C279.6 77.4002 279.1 77.5002 278.6 77.9002C278.1 78.2002 277.7 78.6002 277.5 79.1002C277.3 79.5002 277.2 80.0002 277.2 80.4002C277.2 81.0002 277.4 81.5002 277.7 82.0002C278 82.4002 278.4 82.8002 278.9 83.0002C279.3 83.2002 279.8 83.3002 280.2 83.3002C281 83.3002 281.7 83.0002 282.2 82.5002C282.6 82.1002 282.8 81.7002 282.9 81.3002H279.1V80.6002H279.2Z" fill="#333333"/>
<path d="M281.5 56.1001C282.1 56.1001 282.6 56.2001 283.1 56.5001C283.6 56.8001 284.1 57.2001 284.3 57.7001C284.6 58.2001 284.8 58.8001 284.8 59.4001C284.8 60.0001 284.7 60.5001 284.3 61.1001C284 61.6001 283.6 62.0001 283.1 62.3001C282.6 62.6001 282 62.7001 281.4 62.7001C280.8 62.7001 280.3 62.6001 279.7 62.3001C279.2 62.0001 278.8 61.6001 278.5 61.1001C278.2 60.6001 278 60.0001 278 59.4001C278 58.8001 278.2 58.3001 278.5 57.7001C278.8 57.2001 279.2 56.7001 279.8 56.5001C280.4 56.3001 280.9 56.1001 281.5 56.1001ZM281.5 56.6001C281 56.6001 280.6 56.7001 280.1 57.0001C279.7 57.3001 279.3 57.6001 279.1 58.0001C278.8 58.5001 278.7 58.9001 278.7 59.4001C278.7 59.9001 278.8 60.4001 279.1 60.8001C279.4 61.3001 279.7 61.6001 280.1 61.8001C280.5 62.0001 281 62.2001 281.5 62.2001C282 62.2001 282.4 62.1001 282.9 61.8001C283.4 61.5001 283.7 61.2001 283.9 60.8001C284.2 60.4001 284.3 59.9001 284.3 59.4001C284.3 58.9001 284.2 58.5001 283.9 58.0001C283.6 57.5001 283.3 57.2001 282.9 57.0001C282.4 56.8001 282 56.6001 281.5 56.6001ZM280 61.3001V57.7001H281.2C281.6 57.7001 281.9 57.8001 282.1 57.8001C282.3 57.8001 282.4 58.0001 282.6 58.1001C282.7 58.3001 282.8 58.4001 282.8 58.6001C282.8 58.9001 282.7 59.1001 282.5 59.3001C282.3 59.5001 282.1 59.6001 281.8 59.6001C281.9 59.7001 282 59.7001 282.1 59.8001C282.3 59.9001 282.4 60.2001 282.6 60.5001L283.1 61.2001H282.4L282.1 60.6001C281.9 60.2001 281.6 59.9001 281.5 59.8001C281.4 59.7001 281.2 59.7001 281 59.7001H280.6V61.2001H280V61.3001ZM280.6 59.3001H281.3C281.6 59.3001 281.9 59.2001 282 59.2001C282.1 59.1001 282.2 58.9001 282.2 58.8001C282.2 58.7001 282.2 58.6001 282.1 58.5001C282 58.4001 282 58.3001 281.8 58.3001C281.7 58.2001 281.5 58.2001 281.2 58.2001H280.5V59.3001H280.6Z" fill="#333333"/>
<path d="M44.9 7.89989L73.9 21.3999C77.6 23.1999 78.7 22.8999 78.7 28.3999L78.6 58.8999C78.6 62.0999 77.7 63.6999 76 65.1999L47 85.3999C44.6 87.1999 42.8 86.1999 43.2 82.4999L44.4 48.4999C44.5 46.9999 45.2 45.0999 47.1 43.6999L68.9 29.8999C69.9 29.1999 69.6 28.0999 68 27.4999C65.6 26.3999 46.8 17.1999 41.4 14.7999C39.9 14.0999 39.8 14.0999 38.2 14.6999C32.9 16.8999 13.5 26.2999 11 27.4999C9.5 28.0999 9.09999 29.1999 10.1 29.8999L31.9 43.6999C33.8 45.0999 34.4 46.9999 34.6 48.4999L35.8 82.4999C35.9 85.4999 35 87.2999 32.4 85.4999L3.09999 64.7999C1.39999 63.3999 0.599998 61.3999 0.799998 57.9999L0.899997 27.0999C0.799997 23.9999 2.49999 22.4999 5.69999 21.2999L34.8 7.89989C38.4 6.19989 41.2 6.29989 44.9 7.89989ZM39.6 22.1999C39.1 22.1999 38.7 22.2999 38.1 22.6999L23.3 30.4999C22.2 31.2999 21.9 32.3999 23 33.1999L35.2 40.7999C36.4 41.3999 37 40.9999 37.1 39.3999V36.4999C37.2 34.9999 38 33.6999 39.6 33.6999C41.2 33.5999 42 34.9999 42.1 36.4999V39.3999C42.2 40.9999 42.8 41.3999 44 40.7999L56.2 33.1999C57.3 32.3999 57 31.2999 55.9 30.4999L41.1 22.6999C40.5 22.2999 40.1 22.1999 39.6 22.1999Z" fill="#FF0000"/>
<path d="M110 16.7002H112.7C114.2 16.7002 115.4 17.3002 115.4 18.8002V60.3002C115.4 61.8002 114.2 62.4002 112.7 62.4002H110C108.5 62.4002 107.3 61.7002 107.3 60.3002V18.8002C107.3 17.3002 108.5 16.7002 110 16.7002Z" fill="#FF0000"/>
<path d="M126.6 28.2002H150.9C153.5 28.2002 156.4 31.5002 156.4 34.2002V56.9002C156.4 59.4002 153.9 62.6002 151.4 62.6002H130.2V74.2002C130.2 75.7002 129 76.9002 127.5 76.9002H124.8C123.3 76.9002 122.1 75.7002 122.1 74.2002V31.0002C122.2 28.5002 124.7 28.2002 126.6 28.2002ZM130.2 55.4002V55.6002C130.3 55.9002 130.6 56.2002 130.9 56.3002H147.7C148 56.2002 148.3 55.9002 148.4 55.6002V55.4002C148.4 48.8002 148.4 42.1002 148.4 35.5002V35.3002C148.3 35.0002 148 34.7002 147.7 34.6002C142.1 34.6002 136.5 34.6002 130.9 34.6002C130.6 34.7002 130.3 35.0002 130.2 35.3002V35.5002C130.2 42.1002 130.2 48.8002 130.2 55.4002Z" fill="#333333"/>
<path d="M165.6 16.1001H169.4C170.9 16.1001 171.5 17.0001 171.5 18.5001V60.3001C171.5 61.8001 170.9 62.4001 169.4 62.4001H165.6C164.1 62.4001 163.5 61.7001 163.5 60.3001V18.5001C163.5 17.0001 164.1 16.1001 165.6 16.1001Z" fill="#333333"/>
<path d="M268.4 56.1H271.9C273.7 56.1 274.2 57.5 274.2 59.3C274.2 61 273.6 62.5 271.9 62.5H264.6C264.2 62.5 263.7 62.5 263.3 62.4C260.6 62.1 259.6 60.5 259.6 57.7V18.1C259.6 16.6 260.2 16 261.7 16H265.5C267 16 267.6 16.6 267.6 18.1V27.4C267.7 27.7 268 28 268.3 28.1H271.5C273.3 28.1 274.1 29.5 274.1 31.3C274.1 33.1 273.2 34.5 271.5 34.5C270.8 34.5 269.7 34.5 269 34.5H268.3C268 34.6 267.7 34.9 267.6 35.2V55.4C267.8 55.8 268.1 56 268.4 56.1Z" fill="#333333"/>
<path d="M186.3 35.6C186.2 36.1 186.1 36.5 186 36.8C185.4 38.1 184.1 39 182.6 39C180.6 39 178.9 37.4 178.9 35.3V33.6C178.9 31.7 180.9 28.5 183.8 28.5H207.3C210.5 28.5 212.7 30.8 212.7 34.3V58.4C212.7 60.9 210.5 62.5 207.9 62.4H184.1C180.7 62.4 178.3 58.7 178.3 56V47.8C178.3 45.3 180 43.2 182.3 42.5C182.8 42.2 183.4 42 184.1 42H203.9C204.2 41.9 204.5 41.6 204.6 41.3V35.5C204.5 35.2 204.2 34.9 203.9 34.8C198.3 34.8 192.7 34.8 187.1 34.8C186.8 34.9 186.3 35.3 186.3 35.6ZM186.3 55.4C186.4 55.7 186.7 56 187 56.1H203.8C204.1 56 204.4 55.7 204.5 55.4C204.5 53.6 204.5 51.7 204.5 49.9V49.3V49.1C204.4 48.8 204.1 48.5 203.8 48.4H187C186.7 48.5 186.4 48.8 186.3 49.1V49.3C186.3 51.3 186.3 53.4 186.3 55.4Z" fill="#333333"/>
<path d="M224.7 28.1001H250.4C252.2 28.1001 252.7 29.5001 252.7 31.3001C252.7 33.1001 252.1 34.5001 250.4 34.5001H227.7C227.4 34.6001 227.1 34.9001 227 35.2001V41.2001C227.1 41.5001 227.4 41.8001 227.7 41.9001H247.9C250.8 41.9001 252.9 44.0001 252.9 47.0001V57.0001C252.9 61.4001 248.5 62.5001 245 62.5001H221.4C219.7 62.5001 218.8 61.1001 218.8 59.3001C218.8 57.5001 219.7 56.1001 221.4 56.1001H244.2C244.5 56.0001 244.8 55.8001 244.9 55.4001V48.9001C244.8 48.6001 244.5 48.3001 244.2 48.2001H224.9C221.7 48.2001 219.1 46.6001 219.1 43.5001V33.5001C219 30.2001 221.7 28.1001 224.7 28.1001Z" fill="#333333"/>
<path d="M109.7 2.7002H112.6C114.1 2.7002 115.3 3.6002 115.3 5.1002V8.6002C115.3 10.0002 114.4 11.0002 112.9 11.0002H109.7C108.2 11.0002 107.3 10.1002 107.3 8.6002V5.1002C107.3 3.6002 108.3 2.7002 109.7 2.7002Z" fill="#FF0000"/>
<path d="M305.1 0.100098H306.8C306.9 0.100098 307.1 0.200085 307.1 0.400085V73.3001C307.1 73.4001 307 73.6001 306.8 73.6001H305.1C304.9 73.6001 304.8 73.5001 304.8 73.3001V0.400085C304.8 0.200085 304.9 0.100098 305.1 0.100098Z" fill="#FF0000"/>
</svg>
