<svg width="24" height="25" viewBox="0 0 24 25" fill="none" xmlns="http://www.w3.org/2000/svg">
<path d="M12 22.8906C6.07 22.8906 1.25 18.0706 1.25 12.1406C1.25 6.21063 6.07 1.39062 12 1.39062C17.93 1.39062 22.75 6.21063 22.75 12.1406C22.75 18.0706 17.93 22.8906 12 22.8906ZM12 2.89062C6.9 2.89062 2.75 7.04063 2.75 12.1406C2.75 17.2406 6.9 21.3906 12 21.3906C17.1 21.3906 21.25 17.2406 21.25 12.1406C21.25 7.04063 17.1 2.89062 12 2.89062Z" fill="#FF0000"/>
<path d="M12 13.8906C11.59 13.8906 11.25 13.5506 11.25 13.1406V8.14062C11.25 7.73063 11.59 7.39062 12 7.39062C12.41 7.39062 12.75 7.73063 12.75 8.14062V13.1406C12.75 13.5506 12.41 13.8906 12 13.8906Z" fill="#FF0000"/>
<path d="M12 17.1406C11.87 17.1406 11.74 17.1106 11.62 17.0606C11.5 17.0106 11.39 16.9406 11.29 16.8506C11.2 16.7506 11.13 16.6506 11.08 16.5206C11.03 16.4006 11 16.2706 11 16.1406C11 16.0106 11.03 15.8806 11.08 15.7606C11.13 15.6406 11.2 15.5306 11.29 15.4306C11.39 15.3406 11.5 15.2706 11.62 15.2206C11.86 15.1206 12.14 15.1206 12.38 15.2206C12.5 15.2706 12.61 15.3406 12.71 15.4306C12.8 15.5306 12.87 15.6406 12.92 15.7606C12.97 15.8806 13 16.0106 13 16.1406C13 16.2706 12.97 16.4006 12.92 16.5206C12.87 16.6506 12.8 16.7506 12.71 16.8506C12.61 16.9406 12.5 17.0106 12.38 17.0606C12.26 17.1106 12.13 17.1406 12 17.1406Z" fill="#FF0000"/>
</svg>
