<svg viewBox="0 0 11 10" fill="none" xmlns="http://www.w3.org/2000/svg">
<path d="M5.37533 9.06217C3.02116 9.06217 1.10449 7.14551 1.10449 4.79134C1.10449 2.43717 3.02116 0.520508 5.37533 0.520508C7.72949 0.520508 9.64616 2.43717 9.64616 4.79134C9.64616 7.14551 7.72949 9.06217 5.37533 9.06217ZM5.37533 1.14551C3.36283 1.14551 1.72949 2.78301 1.72949 4.79134C1.72949 6.79967 3.36283 8.43717 5.37533 8.43717C7.38782 8.43717 9.02116 6.79967 9.02116 4.79134C9.02116 2.78301 7.38782 1.14551 5.37533 1.14551Z" fill="black"/>
<path d="M9.75032 9.47926C9.67116 9.47926 9.59199 9.4501 9.52949 9.3876L8.69615 8.55426C8.57532 8.43343 8.57532 8.23343 8.69615 8.1126C8.81699 7.99176 9.01699 7.99176 9.13782 8.1126L9.97116 8.94593C10.092 9.06676 10.092 9.26677 9.97116 9.3876C9.90866 9.4501 9.82949 9.47926 9.75032 9.47926Z" fill="black"/>
</svg>